<svg width="1132" height="512" viewBox="0 0 1132 512" fill="none" xmlns="http://www.w3.org/2000/svg">
<path fill-rule="evenodd" clip-rule="evenodd" d="M117.856 155.745C139.139 138.287 165.77 128.681 193.287 128.536C252.253 128.536 309.535 166.092 309.764 263.05V382.925H234.41V263.28C234.41 213.153 210.747 194.298 178.43 194.298C167.094 194.429 155.967 197.376 146.049 202.875C136.131 208.373 127.733 216.25 121.608 225.8V382.695H45.9477V72.2774H0L24.1992 0H117.856V155.745ZM1060.63 151.454C1041.09 137.98 1018.23 130.109 994.546 128.692C970.857 127.275 947.231 132.366 926.224 143.414C905.216 154.462 887.625 171.048 875.353 191.377C863.08 211.706 856.594 235.007 856.594 258.759C856.594 282.511 863.08 305.811 875.353 326.14C887.625 346.47 905.216 363.055 926.224 374.103C947.231 385.151 970.857 390.242 994.546 388.825C1018.23 387.408 1041.09 379.537 1060.63 366.063V382.772H1131.93V135.435H1060.63V151.454ZM1056.04 294.016C1048.45 305.994 1037.19 315.184 1023.94 320.205C1010.69 325.225 996.174 325.803 982.568 321.853C968.962 317.903 957.006 309.637 948.497 298.3C939.989 286.963 935.389 273.168 935.389 258.988C935.389 244.809 939.989 231.014 948.497 219.677C957.006 208.34 968.962 200.074 982.568 196.124C996.174 192.174 1010.69 192.752 1023.94 197.773C1037.19 202.793 1048.45 211.983 1056.04 223.961V294.016ZM390.474 135.054L446.76 332.035L504.654 135.054H583.531L457.251 512H377.608L419.344 388.063H394.532L312.133 135.054H390.474ZM729.489 306.128L790.293 135.054H867.868L769.54 382.698H689.361L591.109 135.054H668.914L729.489 306.128ZM1021.72 0.078125H938.707L914.508 72.2789H997.367L1021.72 0.078125ZM1048.91 0.078125H1132L1107.65 72.2789H1024.79L1048.91 0.078125Z" fill="#0A23B9"/>
</svg>
