<!-- Copyright SwiftOtter -->
<svg width="214" height="38" fill="none" xmlns="http://www.w3.org/2000/svg">
    <path d="M71.094 26.17c-.556 4.335-4.038 5.668-8.965 5.668-7.52 0-11.336-4.89-9.113-7.224 1.074-1.074 3.445-1.296 4.371.519.741 1.482 1.297 3.63 4.63 3.853 1.223.11 2.594-.111 2.853-1.52.223-1.222-.815-2.259-2.074-2.926-3-1.519-10.003-3.816-9.336-9.41.556-4.815 4.446-5.853 8.891-5.63 7.15.37 9.632 5.038 7.335 7.001-1.185.963-3.112.963-4.186-.555-.926-1.334-.815-3.557-3.705-3.63-1.666 0-2.704.851-2.519 2.333.186 1.445 1.52 2.408 4.742 3.853 5.15 2.334 7.558 3.964 7.076 7.668zM94.322 21.614s-2.186 7.446-2.334 7.853c-.667 1.742-1.519 2.075-3.112 2.075-1.482 0-2.778-.074-3.334-1.926-.148-.593-.889-3.446-1.519-5.668-.593 2.296-1.26 5-1.445 5.52-.481 1.815-1.481 2.074-3.112 2.074-1.481 0-2.63-.111-3.297-1.926a556.095 556.095 0 01-2.148-6.261c-.89-2.63-1.26-3.297-1.927-4.26-.666-.89-.889-1.223-.852-1.89.111-.667.519-.926 1.667-.926h4.965c1.222 0 1.963.111 1.889 1.148-.111 1.038-1.297 1.297-1.037 2.334.259.89 2.074 7.187 2.074 7.187l2.52-9.298c.259-.963.48-1.37 1.407-1.37h1.778c.89 0 1.075.295 1.334 1.147.296 1.038 2.37 9.521 2.37 9.521l1.52-5.334c.963-3.26-.89-3.112-.704-4.446.037-.444.296-.889 1.222-.889h3.335c.74 0 1 .445.963.89-.111 1.222-1.26 1.073-2.223 4.445zM106.399 30.616c-.074.667-.482.926-1.445.926h-6.001c-.963 0-1.408-.297-1.445-.926-.074-.556.185-.963 1-2.075.556-.778.593-1.815.593-4 0-2.15-.037-3.187-.593-3.965-.815-1.111-1.074-1.519-1-2.074.037-.667.482-1.075 1.445-1.371.963-.296 2.815-.89 3.149-.963 1.778-.482 2.704.333 2.704 2.074v6.298c0 2.186.037 3.223.593 4.001.815 1.111 1.037 1.519 1 2.075zm-8.41-19.19c0-1.778 1.593-3.223 3.52-3.223 1.963 0 3.556 1.445 3.556 3.223 0 1.815-1.593 3.26-3.556 3.26-1.927 0-3.52-1.445-3.52-3.26zM120.588 12.834c-.741 1.593-3.668 1.408-3.964-.778-.222-1.52-.593-2.223-1.482-2.186-.741.037-1.111.667-1.148 1.482 0 1.667 1.148 2.704 1.555 4.89h2.742a1.21 1.21 0 011.222 1.223v.296a1.21 1.21 0 01-1.222 1.222h-2.593v5.557c0 2.186-.074 3.26.592 4.001.889.927 1.297 1.482 1.223 2.075-.111.63-.482.926-1.445.926h-6.224c-.963 0-1.407-.296-1.481-.926-.038-.556.185-.963 1-2.075.555-.778.63-1.815.63-4v-5.558h-1.705a1.21 1.21 0 01-1.222-1.222v-.26a1.21 1.21 0 011.222-1.222h1.556c-.407-5.927 1.89-7.928 5.743-8.039 4.223-.185 5.89 2.742 5.001 4.594z"
          fill="#000"/>
    <path d="M126.923 31.838c-2.483 0-5.076-1.222-5.076-5.26v-7.595h-1.074c-.704 0-1.223-.518-1.223-1.222v-.26a1.21 1.21 0 011.223-1.222h.63c2.741 0 1.445-3.778 3.63-3.778h1.26c1.037 0 1.259.481 1.259 1.481v2.297h2.594c.666 0 1.222.556 1.222 1.223v.296a1.21 1.21 0 01-1.222 1.223h-2.594v7.372c0 1.667 1.334 2.111 2.816 1.296.518-.296 1.074-.333 1.445.075 1.037 1.222-1.408 4.075-4.89 4.075zM155.93 20.65c0 6.817-4.742 11.189-11.336 11.189-6.595 0-11.337-4.372-11.337-11.188 0-6.817 4.742-11.151 11.337-11.151 6.594-.037 11.336 4.334 11.336 11.15zm-6.669 0c0-4.926-1.704-8.372-4.63-8.372-2.927 0-4.631 3.445-4.631 8.373 0 4.964 1.704 8.372 4.631 8.372 2.926 0 4.63-3.408 4.63-8.372zM163.931 31.838c-2.482 0-5.075-1.222-5.075-5.26v-7.595h-1.074c-.704 0-1.223-.518-1.223-1.222v-.26a1.21 1.21 0 011.223-1.222h.63c2.741 0 1.444-3.778 3.63-3.778h1.26c1.037 0 1.259.481 1.259 1.481v2.297h2.593c.667 0 1.223.556 1.223 1.223v.296a1.21 1.21 0 01-1.223 1.223h-2.593v7.372c0 1.667 1.334 2.111 2.816 1.296.518-.296 1.074-.333 1.445.075 1 1.222-1.445 4.075-4.891 4.075zM176.416 31.838c-2.482 0-5.075-1.222-5.075-5.26v-7.595h-1.075c-.703 0-1.222-.518-1.222-1.222v-.26a1.21 1.21 0 011.222-1.222h.63c2.742 0 1.445-3.778 3.631-3.778h1.259c1.038 0 1.26.481 1.26 1.481v2.297h2.593c.667 0 1.223.556 1.223 1.223v.296a1.21 1.21 0 01-1.223 1.223h-2.593v7.372c0 1.667 1.334 2.111 2.815 1.296.519-.296 1.075-.333 1.445.075 1 1.222-1.445 4.075-4.89 4.075zM197.755 27.912c-.927 2.111-3.075 3.926-6.743 3.926-4.334 0-8.632-2.482-8.817-7.705-.185-5.372 3.964-8.298 8.669-8.113 4.594.11 6.779 3.297 7.002 5.853.222 2.075-.149 2.89-2.149 2.89h-7.706c.741 4 5.965 4.63 8.484 2.148.889-.852 1.778-.148 1.26 1zm-9.707-6.52c-.111.333.075.666.334.666h3.667c.741 0 1.075-.518.852-1.482-.222-.889-.74-2.185-2.482-2.037-1.444.111-2.111 1.556-2.371 2.852zM213.536 21.02c-.852 1.483-3.112 1.853-4.297.26-.852-1.111-.667-2.148-1.704-2.148-.778 0-.963.592-1 1.593v3.815c0 2.186.037 3.372.592 4.001.889.89 1.297 1.482 1.223 2.075-.111.63-.482.926-1.445.926h-6.224c-.963 0-1.407-.296-1.482-.926-.037-.556.186-.963 1.001-2.075.555-.778.592-1.815.592-3.89 0-2.111-.037-3.26-.592-4.038-.815-1.11-1.038-1.518-1.001-2.074.075-.667.482-1.075 1.482-1.37.926-.297 2.779-.89 3.112-.964 1.556-.445 2.482.148 2.667 1.482.852-.89 2.038-1.63 3.742-1.63 3.334-.037 4.557 2.704 3.334 4.964zM41.902 25.615a6.002 6.002 0 00-6.187-3.075v-3.334a5.255 5.255 0 01-4.779 3.038c-2.667 0-4.89-2.038-5.223-4.631a1.67 1.67 0 00-2.075 0c-.333 3.149-2.964 5.594-6.187 5.594-3.223 0-5.89-2.445-6.186-5.594H7.67c.037-.445.111-.89.186-1.334H5.374c-2.852 0-5.297 2.223-5.371 5.075a5.267 5.267 0 003.334 5.076c.26.11.519.037.704-.148.333-.334.222-.927-.222-1.075-1.482-.556-2.557-2.037-2.52-3.704.037-2.15 1.853-3.853 4.038-3.853h1.371c-1.704.185-3 1.63-3 3.37a3.401 3.401 0 002.963 3.372l-2.26 12.892h26.97v-5.89c-.223.037-.482.037-.741.037a6.335 6.335 0 01-5.78-3.742c-1.296 2.779-4.074 4.668-7.297 4.668-4.483 0-8.15-3.668-8.15-8.15 0-.37.296-.667.666-.667.37 0 .667.296.667.667 0 3.742 3.038 6.816 6.817 6.816a6.795 6.795 0 006.594-5.149s-.037 0-.037-.037l-1.52-1.63-.184-.185c-.593-.63-.149-1.667.703-1.667h3.409c.333 0 .593.148.778.37.296.37.333.926-.037 1.297l-1.593 1.667c0 .11.037.222.037.333 0 .037 0 .111.037.148 0 .074.037.148.037.223.037.074.037.148.074.222.037.148.111.296.148.445.074.148.111.259.185.407.037.037.037.111.074.148l.112.222.037.038c.037.074.11.148.148.222.148.185.296.407.481.555l.111.112c.038.037.075.074.112.074.037.037.074.074.148.11.222.186.518.371.778.52.037.037.074.037.111.073.111.075.222.112.333.149.037 0 .075.037.075.037.037 0 .074.037.074.037.037.037.11.037.148.074l.333.111c.037 0 .074.037.148.037h.074c.075 0 .112.037.186.037.185.037.407.074.63.074H30.64c.26 0 .482-.037.74-.037a4.44 4.44 0 002.26-.963c.038.111.112.185.149.296.037.111.11.223.148.334.074.222.148.444.185.667a4.466 4.466 0 01-.222 2.593.642.642 0 00.37.852.47.47 0 00.223.037c.259 0 .518-.148.63-.445a6.175 6.175 0 00.11-4 10.237 10.237 0 00-.222-.593c0-.037-.037-.037-.037-.074-.11-.223-.222-.445-.333-.63.37-.445.63-1 .815-1.556.185.111.407.222.593.333.037.037.074.037.11.074.149.111.297.223.445.37.778.705 1.26 1.63 1.445 2.668.074.334.334.556.667.556h.111c.37-.074.593-.408.556-.778a5.976 5.976 0 00-2.408-3.89l-.037-.037a3.203 3.203 0 00-.593-.37c-.222-.112-.445-.223-.667-.297v-1.371c.222-.037.445-.074.667-.074h.667c1.519.148 2.926 1 3.667 2.445.111.223.334.334.593.334.111 0 .222-.037.334-.074.333-.111.444-.519.296-.852z"
          fill="#000"/>
    <path d="M17.451 10.76c3.15 0 5.743 2.333 6.15 5.334a2.963 2.963 0 012.112 0c.407-2.482 2.593-4.409 5.186-4.409 1.37 0 2.63.556 3.594 1.408-1.556-3.482-4.446-6.26-8.076-7.557a11.256 11.256 0 002.445-1.334.658.658 0 00.148-.926.658.658 0 00-.926-.148 8.239 8.239 0 01-4.816 1.667c-.223-.037-.482-.037-.704-.074 1.482-.963 2.815-2.186 3.816-3.668.222-.296.148-.704-.186-.926-.296-.222-.704-.148-.926.185-1.593 2.371-4 4.075-6.78 4.78a.281.281 0 00-.148.073A14.084 14.084 0 007.82 16.28h3.445c.37-3.112 3-5.52 6.186-5.52z"
          fill="#000"/>
    <path d="M22.267 16.279c-.333-2.334-2.37-4.15-4.816-4.15-2.445 0-4.482 1.816-4.816 4.15-.037.222-.037.482-.037.704 0 .222 0 .407.037.63.297 2.408 2.371 4.26 4.853 4.26 2.483 0 4.557-1.852 4.854-4.26.037-.186.037-.408.037-.63-.038-.222-.075-.482-.112-.704zm-2.074 1.63a.664.664 0 01-.667-.667 2.032 2.032 0 00-2.038-2.037 2.032 2.032 0 00-2.037 2.037c0 .37-.296.667-.667.667a.664.664 0 01-.667-.667 3.384 3.384 0 013.371-3.371 3.384 3.384 0 013.372 3.371c0 .37-.297.667-.667.667zM30.936 13.056a3.9 3.9 0 00-3.852 3.223 4.533 4.533 0 00-.075.704c0 .222 0 .407.037.63a3.913 3.913 0 003.89 3.297c2.149 0 3.927-1.779 3.927-3.927 0-2.149-1.778-3.927-3.927-3.927zm1.816 4.779a.664.664 0 01-.667-.667 1.17 1.17 0 00-1.186-1.185 1.17 1.17 0 00-1.185 1.185c0 .37-.297.667-.667.667a.664.664 0 01-.667-.667c0-1.37 1.111-2.52 2.52-2.52 1.37 0 2.518 1.112 2.518 2.52 0 .37-.296.667-.666.667z"
          fill="#000"/>
</svg>
